<svg width="60" height="57" viewBox="0 0 60 57" fill="none" xmlns="http://www.w3.org/2000/svg">
<g clip-path="url(#clip0_237_16)">
<path d="M21.3166 3.8999C20.9144 3.90438 20.5237 4.04048 20.1901 4.30329C18.8113 5.38993 18.1389 8.73018 21.2311 11.7662C21.1486 14.2039 25.1748 14.645 23.5759 11.0562C25.027 6.28662 23.0602 3.88124 21.3165 3.90001L21.3166 3.8999ZM45.4066 4.91999C44.8221 4.92085 44.1799 5.2276 43.8229 5.83993C41.6381 9.58601 43.9999 11.4946 46.2649 7.43299C47.1958 5.76377 46.381 4.9185 45.4067 4.91989L45.4066 4.91999ZM41.4694 11.6894C35.484 17.7565 30.9906 26.4548 18.0931 20.3222C19.8465 26.0276 17.4544 27.9046 15.1379 28.4582C14.303 27.8071 13.486 26.9444 12.7431 25.8685L10.9233 23.2319L11.1711 26.565C11.6556 33.1314 13.7737 37.9833 17.2851 41.1107C20.7966 44.2382 25.6041 45.6139 31.371 45.6139C40.3735 45.6139 48.526 39.1178 51.5266 29.8283L52.0309 28.265L50.5768 28.4982C50.0728 28.5789 49.6764 28.5562 49.3676 28.4683L52.3582 22.052C51.0064 22.7064 49.5878 23.5018 48.2085 24.2119C48.3717 22.7907 48.7511 20.9972 49.4089 18.8488L50.3822 15.6624L48.0316 17.7357C45.6284 19.855 43.0447 22.3875 40.5021 24.4819C39.6576 22.5768 39.7825 18.7143 41.4694 11.6894ZM9.01522 16.5525C8.17733 16.5517 7.31528 17.7754 7.53462 18.9723C8.11561 22.1431 10.9128 21.2324 10.2569 18.1457C10.0121 16.9943 9.51797 16.5529 9.01522 16.5525ZM46.8931 21.3421C46.3067 23.916 46.1688 25.9321 46.5216 27.5117C46.7645 28.5989 47.301 29.5067 48.0847 30.0182C48.4707 30.2699 48.8945 30.4238 49.347 30.4949C46.5251 32.7031 42.4082 31.2 44.295 25.5118C36.2551 37.7398 27.9009 38.9867 25.2159 29.6849C23.8368 38.9247 15.2753 36.8803 13.3479 29.4351C15.4252 31.3869 17.8118 32.2961 20.0163 31.8082C21.4936 31.4812 22.8454 30.4863 23.815 28.8817C24.3803 27.9463 24.8175 26.8057 25.1186 25.4686C26.3463 27.7865 27.7614 29.2872 29.3479 30.065C31.511 31.1254 33.8523 30.7703 36.1136 29.7216C39.8138 28.0058 43.5088 24.4799 46.8933 21.3422L46.8931 21.3421ZM46.3268 40.5075C47.4024 41.3221 48.0346 42.2366 48.0346 43.1873C48.0346 46.6827 39.9587 49.5402 30.0674 49.5402C20.1762 49.5402 12.1533 46.6828 12.1533 43.1873C12.1533 42.2652 12.7356 41.3634 13.7519 40.5709C9.99562 41.9893 7.63202 43.9008 7.63202 45.9903C7.63202 50.3654 17.6877 53.8999 30.0675 53.8999C42.4473 53.8999 52.5 50.3655 52.5 45.9904C52.5 43.8793 50.1507 41.9333 46.327 40.5075H46.3268Z" fill="white"/>
</g>
<defs>
<clipPath id="clip0_237_16">
<rect width="60" height="57" fill="white"/>
</clipPath>
</defs>
</svg>
