<svg width="55" height="42" viewBox="0 0 55 42" fill="none" xmlns="http://www.w3.org/2000/svg">
<path d="M12.4605 37.4908H14.8325C14.681 36.9591 14.1476 36.5662 13.5132 36.5662C12.9164 36.5662 12.4095 36.9138 12.2251 37.3975C12.2046 37.4512 12.1793 37.5028 12.1479 37.5508L12.0053 37.7686L12.0947 37.8295L12.2366 37.6129C12.2865 37.5366 12.3705 37.4908 12.4605 37.4908ZM15.6556 38.1073H12.1937C12.3451 38.6391 12.8785 39.0319 13.5132 39.0319C13.9165 39.0319 14.279 38.8734 14.5283 38.621H15.4811C15.1365 39.2884 14.3851 39.7511 13.5132 39.7511C12.315 39.7511 11.3438 38.8772 11.3438 37.7991C11.3438 36.7211 12.315 35.847 13.5132 35.847C14.5946 35.847 15.4915 36.5591 15.6556 37.4909C15.6734 37.5912 15.6825 37.6941 15.6825 37.7991C15.6825 37.904 15.6734 38.0071 15.6556 38.1073Z" fill="white"/>
<path d="M20.1981 35.9497V39.6483H19.3909V37.799C19.3909 37.1182 18.781 36.5661 18.0285 36.5661C17.2765 36.5661 16.6665 37.1182 16.6665 37.799C16.6665 38.4798 17.0731 39.0319 17.5747 39.0319C18.0763 39.0319 18.4828 38.5719 18.4828 38.0045H19.29C19.29 38.9691 18.522 39.7511 17.5747 39.7511C16.6273 39.7511 15.8594 38.877 15.8594 37.799C15.8594 36.721 16.8307 35.847 18.0285 35.847C18.3716 35.847 18.6956 35.919 18.9839 36.0467C19.1697 36.1289 19.3186 36.2789 19.4011 36.4674L19.5436 36.794L19.6419 36.7495L19.4604 36.3339C19.4147 36.2287 19.3909 36.115 19.3909 36.0001V35.9497H20.1981Z" fill="white"/>
<path d="M24.1753 38.5693C24.1753 39.2219 23.3622 39.751 22.3592 39.751C21.356 39.751 20.543 39.2219 20.543 38.5693C20.543 38.5521 20.5434 38.5351 20.5448 38.5181H21.3563C21.3523 38.5351 21.35 38.5521 21.35 38.5693C21.35 38.8246 21.8019 39.0319 22.3592 39.0319C22.9164 39.0319 23.3681 38.8246 23.3681 38.5693C23.3681 38.3144 22.8636 38.21 22.3592 38.1072C21.8607 38.0057 21.3945 37.9617 21.0805 37.7305C20.809 37.5305 20.6438 37.2664 20.6438 36.9771C20.6438 36.353 21.4117 35.8469 22.3592 35.8469C23.3065 35.8469 24.0745 36.353 24.0745 36.9771H23.2673C23.2673 36.7502 22.8607 36.5661 22.3592 36.5661C21.8576 36.5661 21.451 36.7502 21.451 36.9771C21.451 37.2039 21.8673 37.2878 22.3592 37.388C22.8636 37.4908 23.3094 37.519 23.6377 37.7305C23.9698 37.9444 24.1753 38.2414 24.1753 38.5693Z" fill="white"/>
<path d="M28.5528 35.9423L26.1357 40.885L25.5035 40.5645L25.92 39.7127L24.0762 35.9423H24.8651L26.176 38.6228C26.2317 38.7367 26.2607 38.862 26.2607 38.9892V39.1271H26.3683V38.9892C26.3683 38.862 26.3972 38.7367 26.453 38.6228L27.7637 35.9423H28.5528Z" fill="white"/>
<path d="M33.1163 39.032V39.7512H32.6119C31.9432 39.7512 31.4009 39.2912 31.4009 38.7237V36.5662H31.1992V35.9498H31.4009V34.717H32.2082V35.9498H33.0154V36.5662H32.3958C32.3243 36.5662 32.2559 36.5375 32.2054 36.486L32.0445 36.322L31.9684 36.3995L32.1295 36.5635C32.1799 36.6149 32.2082 36.6846 32.2082 36.7572V38.7237C32.2082 38.8939 32.389 39.032 32.6119 39.032H33.1163Z" fill="white"/>
<path d="M36.6107 37.799C36.6107 37.1181 36.0009 36.5661 35.2485 36.5661C34.4962 36.5661 33.8864 37.1181 33.8864 37.799C33.8864 38.4799 34.4962 39.0319 35.2485 39.0319C36.0009 39.0319 36.6107 38.4799 36.6107 37.799ZM37.418 37.799C37.418 38.877 36.4467 39.751 35.2485 39.751C34.0504 39.751 33.0791 38.877 33.0791 37.799C33.0791 36.721 34.0504 35.847 35.2485 35.847C36.4467 35.847 37.418 36.721 37.418 37.799Z" fill="white"/>
<path d="M41.5741 35.9497V39.6483H40.7668V39.598C40.7668 39.483 40.7907 39.3693 40.8364 39.2643L41.0179 38.8488L40.9196 38.8041L40.7769 39.1309C40.6963 39.3155 40.5525 39.4649 40.3708 39.5466C40.0777 39.6784 39.7467 39.7522 39.3963 39.7511C38.4515 39.7477 37.6895 38.9612 37.6895 37.9991V35.9497H38.4967V38.0045C38.4967 38.5719 38.9033 39.0319 39.4048 39.0319C40.1569 39.0319 40.7668 38.4798 40.7668 37.7989V35.9497H41.5741Z" fill="white"/>
<path d="M45.9589 37.5936H45.1517C45.1517 37.0262 44.7451 36.5662 44.2436 36.5662C43.4915 36.5662 42.8815 37.1182 42.8815 37.799V39.6484H42.0742V35.9497H42.8815V36.0001C42.8815 36.1151 42.8579 36.2287 42.8119 36.3339L42.6306 36.7495L42.7289 36.794L42.8715 36.4674C42.9537 36.2789 43.1027 36.129 43.2886 36.0465C43.5767 35.9189 43.9008 35.847 44.2436 35.847C45.191 35.847 45.9589 36.629 45.9589 37.5936Z" fill="white"/>
<path d="M45.8506 25.3359C44.6934 24.5181 43.5285 23.7113 42.3626 22.9063C41.8439 22.5482 41.4522 22.5611 40.9151 22.9249C40.2407 23.3817 39.5676 23.8404 38.8909 24.2935C38.2348 24.7326 38.0942 24.71 37.5341 24.1969C37.3766 24.0525 37.1649 23.8906 36.9682 23.8821C36.2855 23.8529 35.5996 23.8774 34.9229 23.8861V28.8121C35.3887 28.7958 35.8569 28.7687 36.3222 28.7879C36.8207 28.8084 37.2343 28.7111 37.5899 28.3041C37.9061 27.9423 38.278 27.9541 38.6623 28.2323C39.3761 28.7489 40.108 29.24 40.8301 29.745C41.2433 30.0341 41.6768 30.0524 42.1005 29.7694C43.3512 28.9336 44.6005 28.0951 45.834 27.2328C46.5673 26.7203 46.5668 25.8422 45.8506 25.3359Z" fill="#DAFF00"/>
<path d="M29.2341 14.7842C29.0375 14.7927 28.8258 14.9546 28.6682 15.099C28.1081 15.6121 27.9676 15.6347 27.3115 15.1956C26.6347 14.7425 25.9616 14.2838 25.2872 13.827C24.75 13.4632 24.3584 13.4503 23.8398 13.8084C22.6737 14.6134 21.5089 15.4202 20.3517 16.238C19.6355 16.7443 19.635 17.6224 20.3683 18.135C21.6018 18.9972 22.8512 19.8357 24.1018 20.6715C24.5255 20.9546 24.9589 20.9362 25.3722 20.6472C26.0943 20.1421 26.8263 19.651 27.5401 19.1344C27.9244 18.8562 28.2963 18.8445 28.6123 19.2062C28.9191 19.5573 29.2694 19.6777 29.6797 19.691C29.6797 19.7027 29.6803 19.7144 29.6802 19.726H31.0935V14.7854C30.4772 14.7752 29.8543 14.7576 29.2341 14.7842Z" fill="#DAFF00"/>
<path d="M47.0939 6.82529C46.6091 5.69737 45.9623 4.71048 45.1552 3.86449C44.3471 3.0185 43.3897 2.34884 42.282 1.85528C41.1741 1.36184 39.9971 1.11511 38.7508 1.11511H20.8184C18.9252 1.11511 17.1489 1.47978 15.4872 2.20782C13.8254 2.93706 12.3823 3.92395 11.1598 5.16862C9.93633 6.41448 8.96695 7.88269 8.25191 9.57467C7.5357 11.2665 7.17871 13.0762 7.17871 15.0028C7.17871 16.883 7.5357 18.6686 8.25191 20.3605C8.96695 22.0524 9.93633 23.5218 11.1598 24.7665C12.3823 26.0122 13.8254 26.9993 15.4872 27.7273C17.1489 28.4566 18.9252 28.82 20.8184 28.82H34.2848V23.9558H20.8184C19.6176 23.9558 18.487 23.7211 17.4257 23.2508C16.3634 22.7816 15.4287 22.1349 14.6216 21.3122C13.8135 20.4905 13.1786 19.5388 12.7177 18.4571C12.2557 17.3766 12.0253 16.2255 12.0253 15.0028C12.0253 13.7339 12.2557 12.5597 12.7177 11.4779C13.1786 10.3975 13.8135 9.45791 14.6216 8.65817C15.4287 7.85962 16.3634 7.22516 17.4257 6.75478C18.487 6.28559 19.6176 6.04981 20.8184 6.04981H38.7508C39.9506 6.04981 40.9663 6.47285 41.7972 7.31873C42.6281 8.16472 43.0435 9.19905 43.0435 10.4205C43.0435 11.6432 42.6281 12.6765 41.7972 13.5224C40.9663 14.3683 39.9506 14.7913 38.7508 14.7913H31.7319V19.726H38.7508C39.9971 19.726 41.1741 19.4794 42.282 18.9858C43.3897 18.4924 44.3471 17.8226 45.1552 16.9767C45.9623 16.1307 46.6091 15.1438 47.0939 14.0159C47.5786 12.888 47.8208 11.6895 47.8208 10.4205C47.8208 9.15162 47.5786 7.9532 47.0939 6.82529Z" fill="#DAFF00"/>
</svg>
