<svg width="60" height="57" viewBox="0 0 60 57" fill="none" xmlns="http://www.w3.org/2000/svg">
<g clip-path="url(#clip0_241_101)">
<path d="M30 53.895C18.75 53.895 7.5 38.82 7.5 26.395C7.5 20.4276 9.87053 14.7047 14.0901 10.4851C18.3097 6.26555 24.0326 3.89502 30 3.89502C35.9674 3.89502 41.6903 6.26555 45.9099 10.4851C50.1295 14.7047 52.5 20.4276 52.5 26.395C52.5 38.82 41.25 53.895 30 53.895ZM25.065 38.4425C26.3875 37.9625 28.615 33.5775 27.1975 29.685C25.7825 25.7925 21.2 23.885 19.935 24.3475C18.67 24.8075 16.385 29.2125 17.8025 33.105C19.2175 36.9975 23.7425 38.9225 25.065 38.4425ZM34.935 38.4425C36.2575 38.9225 40.7825 36.9975 42.1975 33.105C43.615 29.2125 41.33 24.8075 40.065 24.3475C38.8 23.885 34.2175 25.7925 32.8025 29.685C31.385 33.5775 33.6125 37.96 34.935 38.4425Z" fill="white"/>
</g>
<defs>
<clipPath id="clip0_241_101">
<rect width="60" height="57" fill="white"/>
</clipPath>
</defs>
</svg>
