<?xml version="1.0" encoding="UTF-8" standalone="no"?>
<!DOCTYPE svg PUBLIC "-//W3C//DTD SVG 1.1//EN" "http://www.w3.org/Graphics/SVG/1.1/DTD/svg11.dtd">
<svg width="100%" height="100%" viewBox="0 0 1024 768" version="1.1" xmlns="http://www.w3.org/2000/svg" xmlns:xlink="http://www.w3.org/1999/xlink" xml:space="preserve" xmlns:serif="http://www.serif.com/" style="fill-rule:evenodd;clip-rule:evenodd;stroke-linejoin:round;stroke-miterlimit:2;">
    <g transform="matrix(1.69495,0,0,1.69495,-194.649,-236.134)">
        <g transform="matrix(1.33333,0,0,1.33333,519.58,143.205)">
            <path d="M0,334L-153.998,334C-203.704,334 -243.999,293.705 -243.999,243.999L-243.999,90.001C-243.999,40.295 -203.704,0 -153.998,0L0,0C49.706,0 90.001,40.295 90.001,90.001L90.001,243.999C90.001,293.705 49.706,334 0,334" style="fill:rgb(218,255,0);fill-rule:nonzero;"/>
        </g>
        <g transform="matrix(1.33333,0,0,1.33333,568.447,460.93)">
            <path d="M0,-11.732C-7.166,-16.706 -14.38,-21.614 -21.602,-26.51C-24.813,-28.688 -27.239,-28.61 -30.566,-26.397C-34.743,-23.619 -38.911,-20.828 -43.102,-18.073C-47.165,-15.402 -48.036,-15.539 -51.504,-18.66C-52.48,-19.539 -53.791,-20.524 -55.009,-20.575C-59.237,-20.753 -63.485,-20.604 -67.677,-20.551L-67.677,9.411C-64.791,9.313 -61.891,9.148 -59.01,9.264C-55.923,9.389 -53.361,8.797 -51.159,6.322C-49.201,4.121 -46.898,4.193 -44.518,5.885C-40.097,9.028 -35.564,12.014 -31.092,15.086C-28.533,16.845 -25.848,16.956 -23.225,15.234C-15.479,10.151 -7.742,5.05 -0.103,-0.194C4.439,-3.311 4.436,-8.653 0,-11.732" style="fill:rgb(38,38,38);fill-rule:nonzero;"/>
        </g>
        <g transform="matrix(1.33333,0,0,1.33333,431.237,398.938)">
            <path d="M0,-29.418C-1.218,-29.367 -2.529,-28.382 -3.505,-27.503C-6.973,-24.382 -7.844,-24.245 -11.907,-26.916C-16.098,-29.671 -20.266,-32.462 -24.443,-35.24C-27.77,-37.453 -30.196,-37.531 -33.407,-35.353C-40.629,-30.457 -47.843,-25.549 -55.009,-20.575C-59.445,-17.496 -59.448,-12.155 -54.906,-9.037C-47.267,-3.793 -39.53,1.308 -31.784,6.391C-29.161,8.113 -26.476,8.001 -23.917,6.243C-19.445,3.171 -14.912,0.184 -10.491,-2.958C-8.111,-4.65 -5.808,-4.722 -3.85,-2.521C-1.95,-0.386 0.218,0.346 2.76,0.427C2.76,0.498 2.764,0.569 2.763,0.64L11.515,0.64L11.515,-29.411C7.698,-29.473 3.841,-29.58 0,-29.418" style="fill:rgb(38,38,38);fill-rule:nonzero;"/>
        </g>
        <g transform="matrix(1.33333,0,0,1.33333,578.712,427.235)">
            <path d="M0,-99.051C-3.002,-105.912 -7.008,-111.915 -12.006,-117.06C-17.011,-122.206 -22.94,-126.279 -29.801,-129.281C-36.662,-132.282 -43.951,-133.783 -51.669,-133.783L-162.726,-133.783C-174.45,-133.783 -185.452,-131.565 -195.743,-127.137C-206.034,-122.701 -214.971,-116.698 -222.542,-109.128C-230.12,-101.55 -236.123,-92.619 -240.551,-82.328C-244.987,-72.037 -247.197,-61.029 -247.197,-49.311C-247.197,-37.875 -244.987,-27.015 -240.551,-16.723C-236.123,-6.432 -230.12,2.506 -222.542,10.076C-214.971,17.654 -206.034,23.657 -195.743,28.085C-185.452,32.521 -174.45,34.732 -162.726,34.732L-79.327,34.732L-79.327,5.145L-162.726,5.145C-170.163,5.145 -177.164,3.718 -183.737,0.857C-190.316,-1.997 -196.105,-5.93 -201.103,-10.934C-206.107,-15.933 -210.04,-21.721 -212.894,-28.301C-215.755,-34.873 -217.182,-41.874 -217.182,-49.311C-217.182,-57.03 -215.755,-64.172 -212.894,-70.751C-210.04,-77.323 -206.107,-83.038 -201.103,-87.902C-196.105,-92.76 -190.316,-96.619 -183.737,-99.48C-177.164,-102.334 -170.163,-103.768 -162.726,-103.768L-51.669,-103.768C-44.239,-103.768 -37.948,-101.195 -32.802,-96.05C-27.657,-90.904 -25.084,-84.613 -25.084,-77.183C-25.084,-69.746 -27.657,-63.461 -32.802,-58.316C-37.948,-53.17 -44.239,-50.598 -51.669,-50.598L-95.138,-50.598L-95.138,-20.583L-51.669,-20.583C-43.951,-20.583 -36.662,-22.083 -29.801,-25.085C-22.94,-28.086 -17.011,-32.16 -12.006,-37.305C-7.008,-42.451 -3.002,-48.454 0,-55.314C3.002,-62.175 4.502,-69.465 4.502,-77.183C4.502,-84.901 3.002,-92.19 0,-99.051" style="fill:rgb(38,38,38);fill-rule:nonzero;"/>
        </g>
    </g>
</svg>
